<svg width="366" height="124" viewBox="0 0 366 124" fill="none" xmlns="http://www.w3.org/2000/svg">
<g style="mix-blend-mode:difference" clip-path="url(#clip0_35_44)">
<path d="M52.3614 89.2312C32.8769 89.2312 19.0663 70.4112 18.8107 46.0619C18.6806 22.2242 30.6464 6.17112 46.9663 6.17112C59.8662 6.17112 71.042 15.6532 76.0374 31.0506H77.8683L74.318 2.48804V2.50664H72.3431C68.923 13.0351 63.7974 2.50664 45.9068 2.50664C18.0207 2.50664 -0.269512 24.3494 9.19471e-06 53.1863C0.130123 79.512 17.6164 99.6527 44.457 99.6527C63.5372 99.6527 78.5189 86.7619 80.7726 66.477L78.6676 66.0724C74.8617 80.6839 64.7268 89.2312 52.3614 89.2312Z" fill="black"/>
<path d="M148.134 86.9989C146.285 90.4216 144.458 91.7423 142.609 91.7423C140.104 91.7423 138.659 89.4915 138.659 85.8084V53.0374C138.659 38.2818 128.928 28.9438 112.223 28.9438C93.268 28.9438 83.7929 39.2165 83.5374 48.4242C83.4073 54.6138 88.0216 57.2506 93.0124 56.0601C96.9437 55.2742 99.7086 52.1259 98.1333 46.0618C96.8182 40.5325 99.9828 32.6409 109.054 32.6409C117.065 32.6409 121.549 40.1466 121.549 51.4609V58.4364L112.729 59.3526C92.2224 61.329 83.5327 68.9648 83.5327 82.6602C83.5327 92.5468 91.4371 99.6479 101.828 99.6479C110.517 99.6479 118.017 94.779 121.568 85.1667V85.5527C121.568 95.4207 129.472 99.6293 135.123 99.6293C138.673 99.6293 145.513 98.3133 149.849 87.6546L148.129 86.9943L148.134 86.9989ZM121.568 80.8093C119.463 86.0828 115.657 89.5055 111.047 89.4869C104.992 89.4869 100.657 84.618 100.657 77.8982C100.657 69.4764 105.122 64.4772 114.068 63.1612L121.568 62.2451V80.8093Z" fill="black"/>
<path d="M190.082 28.9624C180.477 28.9624 173.506 35.552 171.276 43.9738V28.9624H169.426L146.285 36.4681V38.319C151.406 37.9144 154.171 39.3606 154.171 46.0804V113.599C154.171 119.128 151.554 120.575 145.625 121.765V123.616H182.982V121.765C173.781 120.575 171.271 119.128 171.271 113.599V95.9695C175.477 98.3691 180.235 99.6479 185.082 99.6479C204.292 99.6479 218.103 84.9109 218.103 62.3892C218.103 44.0808 208.242 28.9392 190.077 28.9578L190.082 28.9624ZM184.427 95.9509C175.881 95.9509 171.271 86.9989 171.271 77.3866V47.9127C172.716 42.2532 177.182 38.3004 182.447 38.3004C194.413 38.3004 200.338 51.8469 200.338 68.1789C200.338 84.511 193.897 95.9509 184.422 95.9509H184.427Z" fill="black"/>
<path d="M237.922 21.1824C244.363 21.1824 249.098 16.5878 249.098 10.5284C249.098 4.469 244.358 0 237.922 0C231.486 0 226.746 4.61316 226.746 10.5284C226.746 16.4437 231.486 21.1824 237.922 21.1824Z" fill="black"/>
<path d="M246.463 87.4035L246.481 28.9485H244.632L221.472 36.4542V38.305C226.611 37.9004 229.376 39.3467 229.376 46.0665V87.4082C229.376 92.6631 227.527 94.7697 221.472 95.83V97.6808H254.493V95.83C248.308 94.7883 246.463 92.6817 246.463 87.4082V87.4035Z" fill="black"/>
<path d="M358.007 87.4035V46.0618L357.97 43.5925C357.241 38.8491 355.317 35.2265 352.227 32.7153C349.136 30.2041 344.982 28.9439 339.787 28.9439C335.14 28.9439 330.948 30.1716 327.198 32.6409C324.787 34.2406 322.477 36.31 320.288 38.8491C319.275 36.3519 317.784 34.3057 315.818 32.7106C312.728 30.2041 308.573 28.9392 303.378 28.9392C298.731 28.9392 294.54 30.1669 290.79 32.6362C288.68 34.0314 286.654 35.7892 284.712 37.9051V28.9392H282.867L259.707 36.4449V38.2957C264.846 37.8912 267.611 39.3374 267.611 46.0572V87.3989C267.611 92.6538 265.761 94.7604 259.707 95.8207V97.6715H292.727V95.8207C286.542 94.779 284.698 92.6724 284.698 87.3989L284.712 43.4576H284.879L287.021 41.5928C289.712 39.635 292.416 38.6445 295.162 38.6445C298.439 38.6445 300.999 39.6676 302.811 41.7184C303.908 42.8717 304.512 44.411 304.475 46.0014V87.3756C304.475 92.6306 302.625 94.7372 296.589 95.7974V97.6483H329.61V95.7974C323.444 94.7558 321.599 92.6491 321.599 87.3942V46.0525L321.562 43.5832C321.543 43.4762 321.524 43.3693 321.506 43.2623L323.425 41.5882C326.116 39.6304 328.82 38.6399 331.566 38.6399C334.842 38.6399 337.403 39.6629 339.215 41.7137C340.312 42.867 340.916 44.4063 340.879 45.9967V87.371C340.879 92.6259 339.029 94.7325 332.974 95.7928V97.6436H365.995V95.7928C359.847 94.7511 358.003 92.6445 358.003 87.3896L358.007 87.4035Z" fill="black"/>
</g>
<defs>
<clipPath id="clip0_35_44">
<rect width="366" height="123.616" fill="black"/>
</clipPath>
</defs>
</svg>
